<svg xmlns="http://www.w3.org/2000/svg" viewBox="0 0 511 432.7"><path fill="#F7C600" d="M499.3 99.3s28 373.4-376 309.4c-14.3-9.7-94-100.7 31.3-132 21.3-.7 190 40.7 200-168.8.1.1 74.1 78 144.7-8.6z"/><path fill="#2C2C2C" d="M462.1 57.4c0 5.5-4.5 10-10 10s-10-4.5-10-10 4.5-10 10-10 10 4.5 10 10zm-59.9 0c0 5.5-4.5 10-10 10s-10-4.5-10-10 4.5-10 10-10 10 4.5 10 10zM297.3 260.8c2.2 0 4.3-.7 6-2 4.4-3.3 5.2-9.6 1.9-14-1.9-2.5-4.8-3.9-8-3.9-2.2 0-4.3.7-6 2-2.1 1.6-3.5 4-3.9 6.6-.4 2.6.3 5.3 1.9 7.4 2 2.5 4.9 3.9 8.1 3.9z"/><path fill="#2C2C2C" d="M507 75.1v-.3C507 33.6 469 0 422.2 0s-84.8 33.6-84.8 74.9c0 7.7 1.3 15.1 3.8 22.1 1 8.1 1.5 16.6 1.5 24.9 0 32.1-8.8 67.5-26.6 94.5-1.5 2.2-2 4.9-1.4 7.5.5 2.6 2.1 4.8 4.3 6.3 1.6 1.1 3.5 1.7 5.5 1.7 3.4 0 6.5-1.7 8.3-4.5 8.1-12.3 14.5-26.3 19.7-42.8 7.6 6.2 19.4 14.2 34.8 19.6 10 3.6 22.3 6.3 36.5 6.3 17.3 0 37.3-4.1 59.3-15.7-16.9 72.2-59.5 133.3-120.8 173.1-7.2 4.7-14.7 9-22.2 13-40.3 21.2-84 31.9-129.8 31.9-22.5 0-45.2-2.7-67.6-8-31.6-7.5-53.7-41.2-47.6-73.3 5.3-27.3 28.1-46.4 55.6-46.5 8.6 0 16.9 2.5 25.3 3.9 9.4 1.6 19 2.4 28.5 2.4 21.3 0 42.1-4 61.7-11.8 5.1-2 7.6-7.9 5.6-13-1.5-3.8-5.2-6.3-9.3-6.3-1.3 0-2.5.2-3.7.7-17.3 6.9-35.5 10.4-54.3 10.4-18.2 0-35.7-6.3-53.8-6.3h-.2c-8.9 0-17.6 1.5-26 4.6-5.2 1.9-10.1 4.3-14.7 7.2l-37.2-45.2c-2.7-3.2-7.1-4.5-11.1-3.1s-6.6 5.2-6.6 9.4l-.1 28.8-41.8-6c-4-.6-8 1.4-10.1 4.9-2 3.5-1.7 8 .8 11.2L29.8 310 5 324.4c-3.6 2.1-5.5 6.3-4.8 10.4.8 4.1 4 7.4 8.2 8l66.4 11c.8 5.6 2.1 11.1 3.9 16.4 9.2 26.4 31.9 47.3 59.3 53.9 23.9 5.6 48.2 8.5 72.2 8.5v-.1.1c24.2 0 48.3-2.9 71.6-8.6 23.4-5.7 46.1-14.3 67.5-25.6 8.1-4.2 16.1-8.9 23.8-13.9 17.2-11.1 33.2-24 47.7-38.3 14.3-14.2 27.3-29.8 38.5-46.6s20.8-34.9 28.4-53.7c7.7-19 13.6-39.1 17.6-59.6 3.8-20 5.8-40.4 5.8-60.6-.1-16.9-1.4-33.8-4.1-50.6zM85.1 302.2c-4.7 7.8-7.9 16.4-9.6 25.5-.4 2-.7 3.9-.9 5.9L39 327.7l10.9-6.3c2.5-1.5 4.2-3.9 4.8-6.8.5-2.8-.2-5.8-2-8L34.9 284l28.5 4.1c2.9.4 5.8-.4 7.9-2.3 2.2-1.9 3.5-4.6 3.5-7.5l.1-12.6L95 289c-3.8 4-7.1 8.4-9.9 13.2zM422.2 20c35.8 0 64.9 24.6 64.9 54.9s-29.1 54.9-64.9 54.9-64.9-24.6-64.9-54.9S386.4 20 422.2 20zM488 168.5c-73.7 49.5-123.7.7-129.9-5.8.6-2.8 1.2-5.6 1.8-8.6 1.5-7.9 2.4-16.7 2.7-26.2 15.3 13.4 36.4 21.7 59.7 21.7 28.3 0 53.3-12.3 68.8-31.1.1 2.4.1 4.7.1 7.1-.2 14.4-1.2 28.7-3.2 42.9z"/><path fill="#2C2C2C" d="M430.2 99.3c0 5.5-4.5 10-10 10s-10-4.5-10-10 4.5-10 10-10 10 4.5 10 10z"/></svg>