<svg xmlns="http://www.w3.org/2000/svg" viewBox="0 0 512 512"><path fill="#F7C600" d="M9.3 503.3v-208L68.7 236H236v31.9h40V240h166.7l59.3 59.3V500z"/><path fill="#2C2C2C" d="M110 452H90c-5.5 0-10 4.5-10 10s4.5 10 10 10h20c5.5 0 10-4.5 10-10s-4.5-10-10-10zm-60-60c-5.5 0-10 4.5-10 10v20c0 5.5 4.5 10 10 10s10-4.5 10-10v-20c0-5.5-4.5-10-10-10zm0 60c-5.5 0-10 4.5-10 10s4.5 10 10 10 10-4.5 10-10-4.5-10-10-10zm372 0h-20c-5.5 0-10 4.5-10 10s4.5 10 10 10h20c5.5 0 10-4.5 10-10s-4.5-10-10-10zm40 20c5.5 0 10-4.5 10-10s-4.5-10-10-10-10 4.5-10 10 4.5 10 10 10zm0-40c5.5 0 10-4.5 10-10v-20c0-5.5-4.5-10-10-10s-10 4.5-10 10v20c0 5.5 4.5 10 10 10z"/><path fill="#2C2C2C" d="M509.1 290.9l-3.1-3.1v-95.1c0-19.1-10.6-36.2-27.6-44.7L446 131.8V88.7c3-1.7 5-5 5-8.7V40c0-5.5-4.5-10-10-10h-70c-5.5 0-10 4.5-10 10v40c0 3.7 2 6.9 5 8.7v43.2L333.6 148c-17.1 8.5-27.6 25.7-27.6 44.7V228h-20V30c0-16.5-13.5-30-30-30s-30 13.5-30 30v198h-20v-35.3c0-19.1-10.6-36.2-27.6-44.7L146 131.8V88.7c3-1.7 5-5 5-8.7V40c0-5.5-4.5-10-10-10H71c-5.5 0-10 4.5-10 10v40c0 3.7 2 6.9 5 8.7v43.2L33.6 148C16.6 156.5 6 173.7 6 192.7v95.1l-3.1 3.1C1.1 292.8 0 295.3 0 298v204c0 5.5 4.5 10 10 10h492c5.5 0 10-4.5 10-10V298c0-2.7-1.1-5.2-2.9-7.1zM381 50h50v20h-50V50zm-55 142.7c0-11.4 6.4-21.7 16.6-26.8l37.9-18.9c3.4-1.7 5.5-5.2 5.5-8.9V90h40v48c0 3.8 2.1 7.3 5.5 8.9l37.9 18.9c10.2 5.1 16.6 15.4 16.6 26.8v75.1l-20-20V198c0-5.5-4.5-10-10-10H356c-5.5 0-10 4.5-10 10v30h-20v-35.3zM446 208v20.8c-1.3-.5-2.6-.8-4-.8h-76v-20h80zM246 30c0-5.5 4.5-10 10-10s10 4.5 10 10v228h-20V30zM81 50h50v20H81V50zM26 192.7c0-11.4 6.4-21.7 16.6-26.8L80.5 147c3.4-1.7 5.5-5.2 5.5-8.9V90h40v48c0 3.8 2.1 7.3 5.5 8.9l37.9 18.9c10.2 5.1 16.6 15.4 16.6 26.8V228h-20v-30c0-5.5-4.5-10-10-10H56c-5.5 0-10 4.5-10 10v49.9l-20 20v-75.2zM146 208v20H70c-1.4 0-2.8.3-4 .8V208h80zm346 284H20V302.1L74.1 248H226v20c0 5.5 4.5 10 10 10h40c5.5 0 10-4.5 10-10v-20h151.9l54.1 54.1V492z"/><path fill="#2C2C2C" d="M150.1 361.4c7.1-3.1 10.7-9.7 10.7-19.8 0-14.9-8.4-22.4-25.2-22.4h-25.8c-3.6 0-8.6 1.6-8.6 6.1v80.1c0 4.3 5.1 5.9 8.6 5.9h28c7.1 0 14.6-2.3 19.6-7.6 4.7-5.1 5.8-12.8 5.8-19.4v-2.6c-.2-9.6-4-16.9-13.1-20.3zm-29.4-25h13.2c4.7 0 7.2 4.6 7.2 8.8 0 4.1-2.5 8.7-7.2 8.7h-13.2v-17.5zm22.7 46.2c0 7.7-3.4 11.6-10.1 11.6h-12.6V369h12.6c6.7 0 10.1 3.9 10.1 11.6v2zm95.9-46.2c4.4 0 5.9-5.1 5.9-8.7 0-3.5-1.6-8.4-5.9-8.4h-44.9c-3.7 0-8.6 1.6-8.6 6.1v80c0 4.4 4.9 6.1 8.6 6.1h44.9c4.3 0 5.9-4.9 5.9-8.4 0-3.6-1.5-8.7-5.9-8.7h-33.8V373h18.9c4 0 5.9-3.9 5.9-7.4 0-3.4-1.8-7.7-5.9-7.7h-18.9v-21.3h33.8zm80.5 0c4.3 0 5.9-5.2 5.9-8.7 0-3.6-1.6-8.4-5.9-8.4h-44.9c-3.5 0-8.6 1.6-8.6 6.1v80c0 4.4 4.9 6.1 8.6 6.1h44.9c2 0 3.4-1.1 4.4-2.5 1.1-1.7 1.6-3.9 1.6-5.9 0-3.4-1.6-8.7-5.9-8.7H286V373h18.9c3.9 0 5.9-3.9 5.9-7.4 0-3.4-1.8-7.7-5.9-7.7H286v-21.3c0-.2 33.6-.2 33.8-.2zm78.6 75.7c2.9 0 5.7-1.1 8.4-3.3 2.2-1.8 5.5-6.2 3.3-9.2l-15.4-27.8c10.2-3.9 15.2-12.5 15.2-25.6 0-18-10.3-27-31-27h-26.1c-3.3 0-6.1 2.6-6.1 5.9v80.1c0 4.8 6.1 6.1 9.8 6.1 3.7 0 9.8-1.3 9.8-6.1v-30.4h8.3l17.3 33.5c1.5 2.6 3.6 3.8 6.5 3.8zm-11-55c-1.9 1.8-4.8 2.7-8.4 2.7h-12.5v-23.4H379c3.7 0 6.5.9 8.4 2.7 1.9 1.8 2.9 4.8 2.9 9s-.9 7.2-2.9 9z"/></svg>