<svg xmlns="http://www.w3.org/2000/svg" viewBox="0 0 462 512"><path fill="#F7C600" d="M71.7 251.3v203.4l23.3 48h236.7l19.3-57.4v-194z"/><path fill="#2C2C2C" d="M412 222h-50v-40.3c12.8-11.4 20-27.4 20-44.7 0-31.3-24-57-54.6-59.8-4.7-20.3-15.8-38.7-31.6-52.6C277.6 8.8 254.2 0 230 0c-24.3 0-47.4 8.7-65.6 24.5-6.3-1.7-12.8-2.5-19.4-2.5-28.2 0-53.5 15.5-66.4 40.1-1.2-.1-2.4-.1-3.6-.1-41.4 0-75 33.6-75 75 0 36.9 26.6 67.7 62 73.9v17.5c-4.3 5.2-13.7 16.7-23.2 30.3C20.8 284.4 12 303.5 12 317c0 19.3 15.7 35 35 35 5.4 0 10.4-1.2 15-3.4V452c0 1.3.3 2.6.8 3.9l19.9 49.8c1.5 3.8 5.2 6.3 9.3 6.3h240c4.1 0 7.8-2.5 9.3-6.3l19.9-49.8c.5-1.2.8-2.5.8-3.8v-12.7l50.1-15c14.5-4.4 27-13.1 36-25.3s13.8-26.6 13.8-41.8V272c.1-27.6-22.3-50-49.9-50zm-70-10v30H82v-30h20c8.6 6.5 19.1 10 30 10s21.4-3.5 30-10h88.8c7.8 6.5 17.5 10 27.8 10s20-3.5 27.8-10H342zM82 262h260v180H82V262zm280 20h40v72.1c0 4.4-2.9 8.3-7.1 9.6l-32.9 9.9V282zM20.4 143.5c-.3-2.2-.4-4.4-.4-6.5 0-29.1 22.8-53.1 51.5-54.9C70.5 87 70 92 70 97c0 5.5 4.5 10 10 10s10-4.5 10-10c0-7.1 1.3-14 3.9-20.4v-.1c8.4-20.9 28.5-34.5 51-34.5 1.2 0 2.3 0 3.4.1C136.5 58.9 130 78.9 130 100c0 5.5 4.5 10 10 10s10-4.5 10-10c0-21.7 8.5-41.9 24-57.1C189 28.1 208.9 20 230 20c36.2 0 67.8 24.7 77.2 58.9-4.9 1.2-9.6 3.1-14 5.5-4.8 2.7-6.6 8.7-4 13.6 1.8 3.3 5.2 5.2 8.8 5.2 1.6 0 3.3-.4 4.8-1.2 5.1-2.8 10.9-4.5 16.8-4.8h.2c.8 0 1.5-.1 2.3-.1 22.1 0 40 17.9 40 40 0 12.7-5.8 24.4-16 32-2.5 1.9-4 4.9-4 8v15h-22.2c1.4-4.3 2.2-8.8 2.2-13.5 0-5.5-4.5-10-10-10s-10 4.5-10 10c0 7.1-3.3 13.9-8.8 18.4-4.1 3.3-9.4 5.1-14.7 5.1-7.2 0-14.2-3.4-18.6-9.1-3.2-4.1-4.9-9.2-4.9-14.4 0-5.5-4.5-10-10-10s-10 4.5-10 10c0 4.7.8 9.2 2.1 13.5h-59.3c2.7-6.2 4.2-13 4.2-20 0-5.5-4.5-10-10-10s-10 4.5-10 10c0 16.1-13.9 30-30 30-4.9 0-9.8-1.2-14.1-3.5 2.5-1.7 4.9-3.6 7.2-5.7 4.1-3.7 4.5-10 .8-14.1s-10-4.5-14.1-.8c-32.8 29.2-86.4 8.8-91.5-34.5zM47 332c-8.3 0-15-6.7-15-15 0-12.1 14.8-36 30-56.4V317c0 8.3-6.7 15-15 15zm278.2 160H98.8l-12-30h250.5l-12.1 30zM442 357.4c0 22.3-14.3 41.5-35.6 47.9L362 418.6v-24.1l38.6-11.6c12.8-3.8 21.4-15.4 21.4-28.7V272c0-5.5-4.5-10-10-10h-50v-20h50c16.5 0 30 13.5 30 30v85.4z"/><path fill="#2C2C2C" d="M122 282c-5.5 0-10 4.5-10 10s4.5 10 10 10 10-4.5 10-10-4.5-10-10-10zm0 40c-5.5 0-10 4.5-10 10v80c0 5.5 4.5 10 10 10s10-4.5 10-10v-80c0-5.5-4.5-10-10-10zm60-40c-5.5 0-10 4.5-10 10v120c0 5.5 4.5 10 10 10s10-4.5 10-10V292c0-5.5-4.5-10-10-10zm60 0c-5.5 0-10 4.5-10 10v120c0 5.5 4.5 10 10 10s10-4.5 10-10V292c0-5.5-4.5-10-10-10zm60 0c-5.5 0-10 4.5-10 10s4.5 10 10 10 10-4.5 10-10-4.5-10-10-10zm0 40c-5.5 0-10 4.5-10 10v80c0 5.5 4.5 10 10 10s10-4.5 10-10v-80c0-5.5-4.5-10-10-10zm-77.8-186c-2.2-1.9-5.1-2.7-7.9-2.3-5.5.8-9.3 5.9-8.5 11.3.7 4.9 4.9 8.6 9.9 8.6.5 0 .9 0 1.4-.1 2.6-.4 5-1.8 6.6-3.9 1.6-2.1 2.3-4.8 1.9-7.4-.3-2.4-1.5-4.6-3.4-6.2zM212 74c16.5 0 30 13.5 30 30 0 4.4-.9 8.5-2.7 12.5-2.3 5 0 11 4.9 13.3 4.9 2.3 11 0 13.3-4.9 9-19.6 3.3-41.6-10.5-55.7-8.9-9.1-21.1-15-35-15-5.5 0-10 4.5-10 10s4.5 9.8 10 9.8z"/></svg>