<svg xmlns="http://www.w3.org/2000/svg" viewBox="0 0 301.4 511"><path fill="#F7C600" d="M281.5 132c23.9 133.3-41.1 318-41.1 318H61.5s-18.2-94.7-31.3-122.7c-61-61-10.3-195.3-10.3-195.3h261.6z"/><path fill="#2C2C2C" d="M296.6 174.3l-6.5-44c0-.1-10-50.4-10-50.4-.1-.7-.3-1.3-.6-1.9 1.8-5.8 2.8-12 2.8-18.3-.1-15.5-6.1-30.2-16.9-41.4C254.4 7 239.9.5 224.4 0c-19.8-.6-38.4 8.6-49.9 24.1-9.9-9-22.9-14.1-36.8-14.1-16.2 0-31.5 7.1-42 19.6-3 3.5-7.8 4.8-11.9 3.3-5.8-2.2-12-3.2-18.2-2.8C43 31.3 24.8 49.2 23.2 71.8c-.1 1.4-.1 2.8-.1 4.1-.9 1.2-1.5 2.5-1.8 4l-10 49.9c0 .1-6.6 44.5-6.6 44.5-9 47.2-5.3 96.1 10.9 141.3l10.9 30.7c.1.3.2.5.3.8 20.3 44.5 23.9 100.3 24.1 104.3v29.7c0 16.5 13.4 29.9 29.9 29.9h139.5c16.5 0 29.9-13.4 29.9-29.9v-29.6c.4-4.5 4.9-56.6 24.3-104.9.1-.1.1-.2.1-.4l10.9-30.7c16.4-45.2 20.1-94 11.1-141.2zM39.3 91.8h222.8l6 29.9H33.3l6-29.9zm27.4-41.9H68c3 0 6 .5 8.8 1.6 12.1 4.6 25.8.9 34.2-9.1 6.6-7.9 16.4-12.5 26.7-12.5 12.3 0 23.4 6.3 29.8 16.8 2 3.2 5.6 5.1 9.4 4.8 3.8-.3 7-2.8 8.4-6.3 6.2-15.7 21.6-25.8 38.4-25.3 21.2.7 38.4 18.5 38.5 39.8 0 4.2-.6 8.3-1.8 12.1H43.3c1.4-11.7 11.5-21.2 23.4-21.9zm163.7 431.2c0 5.5-4.5 10-10 10H81c-5.5 0-10-4.5-10-10v-20h159.4v20zM267 308.9l-10.9 30.5c-16.5 41-22.7 83.4-24.8 101.8h-161c-1.8-19.1-7.6-63.6-25-102l-10.8-30.3c-15-42-18.4-87.3-10-131 0-.1.1-.3.1-.4l5.3-35.7h241.9l5.3 35.7c0 .1 0 .3.1.4 8.2 43.7 4.7 89-10.2 131z"/><path fill="#2C2C2C" d="M246.8 231.6c-2.7-.1-5.3.9-7.2 2.8-1.9 1.8-2.9 4.3-3 6.9-.6 23.7-4.6 47.2-11.8 69.8-1.7 5.2 1.2 10.9 6.4 12.5 1 .3 2 .5 3 .5 4.3 0 8.2-2.8 9.5-6.9 7.8-24.4 12.1-49.8 12.7-75.4.2-5.5-4.1-10.1-9.6-10.2zm-22.5 110.8a9.6 9.6 0 0 0-3.3-.6c-4.2 0-8 2.7-9.4 6.6-1.8 5.2.9 10.9 6 12.8 1.1.4 2.2.6 3.4.6 4.2 0 8-2.7 9.4-6.6 1.8-5.3-.9-11-6.1-12.8z"/></svg>