<svg xmlns="http://www.w3.org/2000/svg" viewBox="0 0 512 422"><path fill="#F7C600" d="M10.7 211s10 199.3 154.6 202c144.7 2.7 188.7 0 188.7 0s124 11.3 146-202H10.7z"/><path fill="#2C2C2C" d="M509.9 201.8c-1.9-2.4-4.8-3.8-7.9-3.8h-49.4c4.7-15.9 1.8-33.3-8.5-46.9l-18.4-24.6c-13.8-18.4-33-32.2-54.6-39.7 1.9-5.3 2.9-11 2.9-16.8 0-21.5-12.8-40.8-32.6-49.1L313 8.9C285.1-2.9 253-3 225 8.6L196.7 20c-.7.1-1.4.3-2.1.6-10.1 4.3-18.4 11.4-24.1 20.2-5.7-1.8-11.7-2.9-18-2.9-32.3 0-58.5 26.3-58.5 58.6 0 8.5 1.8 16.5 5.1 23.8-17.8 9-29.1 27.2-29.1 47.4 0 11.1 3.7 21.7 10.2 30.2H10c-3 0-5.9 1.4-7.8 3.7C.3 204-.4 207 .2 210l17.5 80c0 .1 8.2 30 8.2 30 .1.2.1.4.2.6 10.2 29.6 29.5 55 55.8 73.5C108 412.4 138.4 422 170 422h172.7c33.5 0 66.5-11.4 92.9-32.2s45.2-50.2 53-82.8l4-16.7 19.2-80c.6-3-.1-6.1-1.9-8.5zm-100.2-63.4l18.4 24.6c7.6 10.2 8.7 23.7 3.1 34.9h-52c-3.6-10.3-10.5-29.7-18.5-49.7-9-22.5-16.2-37.7-22-48.1l8.3 1.2h.1c24.7 3.6 47.6 17.1 62.6 37.1zm-233.7 20c-19.2-14.8-33-24.3-43.3-30.3l7.8-3.1h.1c23.1-9.6 49.6-9.5 72.7.2l28.4 11.9c12.4 5.2 20.4 17.3 20.4 30.7 0 10.2-4.9 19.3-13.4 25-8.1 5.4-17.8 6.5-26.8 3.2-5.3-4.5-24.7-21.2-45.9-37.6zm17.3 39.6h-27.9c8.6-5.3 16-9.8 16-9.8 4.2 3.4 8.3 6.8 11.9 9.8zm88.4-85.1c6-10.3 17-16.5 28.7-16.5.5 0 1 0 1.5.1 3.3 3.4 12.6 15.7 30.1 59.2.2.4.3.8.5 1.2l-39.6.9c-9.8-1.5-17.9-7.5-22.3-16.5-4.4-9.3-4-19.6 1.1-28.4zm-17.2-10.2c-3.7 6.3-5.9 13.3-6.6 20.3-2.7-1.7-5.5-3.2-8.5-4.5l-13.2-5.6 37-22.8c.3.2.5.4.8.7-3.7 3.5-6.9 7.5-9.5 11.9zm17.4 68.2c5.8 3.5 12.3 5.8 19.2 6.7.4.1.9.1 1.3.1h.2l47.6-1c3 8.1 5.7 15.4 7.8 21.3h-86.2c5.9-7.8 9.5-17.2 10.1-27.1zM232.5 27.2h.1c23.1-9.6 49.6-9.5 72.7.2l28.4 11.9C346 44.5 354 56.5 354 70c0 4.2-.8 8.3-2.4 11.9-.6-.1-1.1-.2-1.7-.3l-32.7-4.9c-.5-.1-.9-.1-1.4-.1-8.3-.8-16.4.3-23.9 3.1-7.1-5.9-15.4-12.5-23.9-19.1-19.2-14.8-33-24.3-43.3-30.3l7.8-3.1zm-33.1 13.2c4.2 1 18.2 6.5 56.2 35.9.3.2.5.4.8.6L223 97.6c-9.2 3.6-19.3 2.6-27.6-2.9-8.5-5.7-13.4-14.8-13.4-25 0-12.3 6.8-23.5 17.4-29.3zm-46.9 17.5c3.6 0 7.2.5 10.5 1.5-.7 3.3-1 6.8-1 10.3 0 10.2 3.1 20 8.7 28.2-12.9.7-25.7 3.5-37.7 8.5 0 0-7.6 3.1-15.4 6.2-2.3-4.9-3.6-10.4-3.6-16.1 0-21.3 17.3-38.6 38.5-38.6zm-44.7 80.4c4.6 1.2 18.8 7.2 55.9 35.9.3.3.7.5 1 .8L131 195.6c-9.2 3.6-19.3 2.6-27.6-2.9-8.5-5.7-13.4-14.8-13.4-25 0-12.4 6.9-23.7 17.8-29.4zm361.3 164C455 361 403 402 342.6 402H170c-55.7 0-107-36-124.9-87.5L40.6 298h429.5l-1 4.3zm15.4-64.3H432c-5.5 0-10 4.5-10 10s4.5 10 10 10h47.7l-4.8 20H35.5l-4.4-20H80c5.5 0 10-4.5 10-10s-4.5-10-10-10H26.8l-4.4-20h466.9l-4.8 20z"/><path fill="#2C2C2C" d="M120 258c5.5 0 10-4.5 10-10s-4.5-10-10-10-10 4.5-10 10 4.5 10 10 10zm136 0c5.5 0 10-4.5 10-10s-4.5-10-10-10-10 4.5-10 10 4.5 10 10 10zm136 0c5.5 0 10-4.5 10-10s-4.5-10-10-10-10 4.5-10 10 4.5 10 10 10zm-96 0h56c5.5 0 10-4.5 10-10s-4.5-10-10-10h-56c-5.5 0-10 4.5-10 10s4.5 10 10 10zm-136 0h56c5.5 0 10-4.5 10-10s-4.5-10-10-10h-56c-5.5 0-10 4.5-10 10s4.5 10 10 10z"/></svg>