<svg xmlns="http://www.w3.org/2000/svg" viewBox="0 0 512 512"><circle fill="#F7C600" cx="256.2" cy="251.5" r="159.2"/><path fill="#2C2C2C" d="M452 412h-19.4l-13-30.4c29-36 46.4-81.8 46.4-131.6 0-105.6-78.4-193.2-180-207.8V10c0-5.5-4.5-10-10-10h-40c-5.5 0-10 4.5-10 10v32.2C124.4 56.8 46 144.4 46 250c0 49.8 17.4 95.5 46.4 131.6l-13 30.4H60c-27.6 0-50 22.4-50 50s22.4 50 50 50h81.5c15.1 0 28.8-8.4 35.6-21.8l21.8-38.1c18.2 5.1 37.3 7.9 57.1 7.9s39-2.8 57.1-7.9l21.8 38.1c6.9 13.5 20.5 21.8 35.6 21.8H452c27.6 0 50-22.4 50-50s-22.4-50-50-50zM246 20h20v20.2c-3.3-.2-6.6-.2-10-.2s-6.7.1-10 .2V20zm-86.4 460.4c-.1.2-.2.3-.3.5-3.4 6.8-10.3 11.1-17.9 11.1H60c-16.5 0-30-13.5-30-30s13.5-30 30-30h26c4 0 7.6-2.4 9.2-6.1l12-27.9c20.4 20.5 45 36.9 72.4 47.6l-20 34.8zM66 250c0-104.8 85.2-190 190-190s190 85.2 190 190-85.2 190-190 190S66 354.8 66 250zm386 242h-81.5c-7.6 0-14.5-4.2-17.9-11.1-.1-.2-.2-.3-.3-.5l-19.9-34.9c27.4-10.7 52-27.1 72.4-47.6l12 27.9c1.6 3.7 5.2 6.1 9.2 6.1h26c16.5 0 30 13.5 30 30S468.5 492 452 492z"/><path fill="#2C2C2C" d="M89.5 462c0 5.5 4.5 10 10 10h40c5.5 0 10-4.5 10-10s-4.5-10-10-10h-40c-5.5 0-10 4.5-10 10zm-30-10c-5.5 0-10 4.5-10 10s4.5 10 10 10 10-4.5 10-10-4.5-10-10-10zm393 0c-5.5 0-10 4.5-10 10s4.5 10 10 10 10-4.5 10-10-4.5-10-10-10zm-40 0h-40c-5.5 0-10 4.5-10 10s4.5 10 10 10h40c5.5 0 10-4.5 10-10s-4.5-10-10-10zM256 80c-93.7 0-170 76.3-170 170s76.3 170 170 170 170-76.3 170-170S349.7 80 256 80zM131 332.8c-15.8-23.7-25-52.2-25-82.8s9.2-59.1 25-82.8v165.6zM271 295c0 8.3-6.7 15-15 15s-15-6.7-15-15 6.7-15 15-15 15 6.7 15 15zm-90 84.9c-10.9-6.3-21-14-30-22.9V143c9-8.8 19.1-16.5 30-22.9v259.8zm65 19.8c-15.8-1-30.9-4.5-45-10.1V110.4c14.1-5.6 29.2-9.1 45-10.1V220h-10c-5.5 0-10 4.5-10 10s4.5 10 10 10h10v21.5c-14.4 4.3-25 17.7-25 33.5 0 6.6 1.8 12.7 5 18v47c0 5.5 4.5 10 10 10h10v29.7zm0-49.7v-21.5c3.2.9 6.5 1.5 10 1.5s6.8-.5 10-1.5V350h-20zm65 39.6c-14.1 5.6-29.2 9.1-45 10.1V370h10c5.5 0 10-4.5 10-10v-47c3.2-5.3 5-11.4 5-18 0-15.8-10.6-29.2-25-33.5V240h10c5.5 0 10-4.5 10-10s-4.5-10-10-10h-10V100.3c15.8 1 30.9 4.5 45 10.1v279.2zm50-32.6c-9 8.8-19.1 16.5-30 22.9V120.1c10.9 6.3 21 14 30 22.9v214zm20-189.8c15.8 23.7 25 52.2 25 82.8s-9.2 59.1-25 82.8V167.2z"/></svg>