<svg xmlns="http://www.w3.org/2000/svg" viewBox="0 0 1478.3 1250.2"><g fill-rule="evenodd" clip-rule="evenodd" fill="#FFF"><path d="M790.4 773c-66.1-16.2-209.6-56.8-209.6-56.8s3.1 49.7-18.2 109.4C538.3 893.7 506 945.5 503.1 950l-.2.4.2-.4 118.5-185.8s33.9 5.9 167.7 31.2c102.6 19.4 181.2 8.7 181.2 8.7s-65.4-3-180.1-31.1zm-293 345.8c-5.5-23.8-29.3-38.7-53.1-33.2s-38.7 29.3-33.2 53.1 29.3 38.7 53.1 33.1c23.9-5.4 38.7-29.1 33.2-53zm-19.3-87.3c-1.1-4.8-5.9-7.7-10.6-6.6-4.8 1.1-7.7 5.9-6.6 10.6 1.1 4.8 5.9 7.7 10.6 6.6 4.8-1 7.7-5.8 6.6-10.6zm31.6 26.4c2.9 12.4 15.2 20.1 27.6 17.2 12.4-2.9 20.1-15.2 17.2-27.6-2.9-12.4-15.2-20.1-27.6-17.2-12.4 2.8-20.1 15.2-17.2 27.6zm25.2 65.9c2.2 9.5 11.7 15.5 21.2 13.3 9.5-2.2 15.5-11.7 13.3-21.2-2.2-9.5-11.7-15.5-21.2-13.3-9.6 2.2-15.5 11.7-13.3 21.2zm912.8-346.3c-48.3 125.2-156.3 243.3-156.3 243.3l7.3-94.3s-96.9 231.3-500.6 310.1c-276.8 54-510.2-69.2-510.2-69.2s118.2-101.9 182.5-267.5c46.9-120.7 47.5-254.4 47.5-254.4s28.4-9.9 124.2 18.5C745 694.6 982 805.8 1202.3 745.3c195.6-53.7 273.2-201.2 273.2-201.2s15.7 120.8-27.8 233.4z"/><path d="M1228.7 326.8c-4.9-19.4-24.6-31.2-44.1-26.3-19.4 4.9-31.2 24.6-26.3 44.1 4.9 19.4 24.6 31.2 44.1 26.3 19.5-4.9 31.2-24.6 26.3-44.1zm-432.2-86.1s-88.1 34.5-166.4 79.6C556.5 362.7 492.3 416 492.3 416s81.8 5.2 159.1 24.6c75.6 19 146.7 52.3 146.7 52.3s-47.8-53.1-134.2-91.7c-35.5-15.8-70.1-17.4-70.1-17.4l202.7-143.1zm546.2 231c-53 7.8-108.6 2.7-108.6 2.7s48.9 27.5 95.8 40.7c35.6 10.1 82.9 6.8 82.9 6.8s-64 83.6-145.2 125.2c-83.7 42.9-195.3 43.7-195.3 43.7s-48.8-95.4-59.1-205.3c-10.6-113.9 45.7-179.5 45.7-179.5s-79.2 72.4-91.4 180.2c-12.7 112 27.5 196.7 27.5 196.7s-100.1-5.7-182.5-30.6c-56.6-17.1-261-103.8-397.3-98.9-112.7 4.1-209 43.5-209 43.5s75.1-151.3 60.3-155.7c-14.8-4.5-93.1 57.4-153 146.2-61.7 91.5-90.2 214.4-90.2 214.4S-41 611.3 147.5 381.7c169.9-207 428-242.9 435.7-255.8 7.7-12.9-15.4-42.2-46.1-66.9-38.3-30.9-93.7-45.8-93.7-45.8s159.4-24.6 308.7-6.6C937.5 28.9 1030 126 1030 126s181.5 14 287.1 101.5C1416.6 310 1448 442.8 1448 442.8s-51.4 21-105.3 28.9z"/><path d="M349.9 661c-12.1 5-20.8 18.9-20.8 18.9s-21.6-13.2-55.9 6.3c-20.4 11.6-18.9 38.5-18.9 38.5l5.6 26.9s-4.1-24.3 27.6-48.7c24.5-18.8 50.4-3.9 50.4-3.9s1.9-10.4 12.1-22.4c10.2-12.1 29-18.6 29-18.6s-16.9-2-29.1 3zM118.8 890.9c-6.6-23.6 1.6-53.2 1.6-53.2s-17.3 19.8-21.5 39.7c-4.2 19.8 6 43 6 43s-35.6 16-40.5 76.6c-2.9 36 41.7 78.9 41.7 78.9s-10 20.9-4.1 41c6.5 22.4 30.6 43.5 30.6 43.5s-16.3-27.2-14-49.5c2.1-20.5 17.6-40.1 17.6-40.1s-34.6-15.8-38.1-77.4c-2.7-47.5 38.8-67.7 38.8-67.7s-11.6-11.4-18.1-34.8zm287.6-.6c-62.7 158.5-181.2 249.3-184.7 262.9-2.2 8.8-24.8 48.8-78.1 40.5-44.2-6.8-55.6-43.7-62.7-55.2-8.5-13.8-36.2-23-56.4-51.1-29.4-41-29.9-90.4-13.8-122 14.5-28.3 37.9-41.6 44.2-54.9 6.3-13.3-3.1-18.6-2.1-43 1.3-32.5 19.5-55.4 40.6-63.2 32.7-12 34.6-23.1 40.2-48.6 7.4-33.4 21.3-37.4 47.2-41.1 33.6-4.7 42.1-8.1 46.6-35.5 3.3-19.9 21.4-36.7 39.7-34 35.7 5.3 25.3 2.7 50.4-16.8 44.3-34.4 99.7 13.6 87.6 10.3 14.2 3.9 10.1-1.9 24.6-3.5 11.7-1.4 19.7-.8 25.5 9 5.9 9.8 8.9 100.2-48.8 246.2z"/></g></svg>