<?xml version="1.0" encoding="utf-8"?>
<!-- Generator: Adobe Illustrator 22.1.0, SVG Export Plug-In . SVG Version: 6.00 Build 0)  -->
<svg version="1.1" id="Layer_1" xmlns="http://www.w3.org/2000/svg" xmlns:xlink="http://www.w3.org/1999/xlink" x="0px" y="0px"
	 viewBox="0 0 512 269" enable-background="new 0 0 512 269" xml:space="preserve">
<path fill="#F7C600" d="M11.3,87.3l27.3,67.3l-27.3,68.7H66c0,0,26.2-14.3,29.3-29.3c3.1-15,76.5-39.3,163.3,12
	c-13.9,41.3-18.6,51.3-18.6,51.3h47.1c0,0,30.2-3.3,36.9-22c10.7,2.7,124,41.3,176.7-32c-6-21.3-22.5-119-170.7-130.6
	s-226.7,41.9-226.7,41.9l-18-3.3C85.3,111.3,90.7,76.7,11.3,87.3z"/>
<path fill="#2C2C2C" d="M486.5,143c-10.6-14.9-33-42.1-63.9-56.6c-1.9-1-8-4.2-19.5-8l12.1-17.2c1.2-1.7,1.8-3.7,1.8-5.7
	C417,23.3,346.2,0,298.5,0S180,23.3,180,55.5c0,2.1,0.6,4.1,1.8,5.7l8.2,11.8c-35.3,8.3-65.3,20.6-90.8,32.5
	C91.2,87.5,73.4,76,53.6,76H10c-3.4,0-6.5,1.7-8.3,4.5c-1.9,2.8-2.2,6.4-0.8,9.4L29.1,156L0.8,222.1c-1.3,3.1-1,6.6,0.8,9.4
	c1.9,2.8,5,4.5,8.3,4.5h43.6c20,0,38.1-11.9,46-30.3l2.7-6.3c52.4-27.1,96.6-8.9,146.6,14.3L231.2,255c-1.3,3.1-1,6.6,0.8,9.4
	c1.8,2.8,5,4.5,8.3,4.5H284c17.1,0,32.8-8.7,41.9-22.7c23.6,7.6,49.1,12.9,77,12.9c21.3,0,47.3-6.3,69.5-16.9
	c14.8-7,39.5-21.7,39.5-40.9C512,187.7,502,164.9,486.5,143z M463.9,224.1c-19.4,9.3-42.8,15-60.9,15c-24.5,0-46.8-4.3-67.9-10.9
	l6.3-12.9c2.4-5,0.4-10.9-4.6-13.4c-5-2.4-10.9-0.4-13.4,4.6c0,0-16.4,42.4-39.4,42.4h-28.5l24-56.1c2.2-5.1-0.2-11-5.3-13.1
	s-11,0.2-13.1,5.3l-4.4,10.3c-33.5-15.6-66.2-29.6-101.1-29.6c-20.9,0-42.7,5-65.9,17.7c-2,1.1-3.5,2.8-4.4,4.8l-4.1,9.5
	c-4.7,11-15.6,18.2-27.6,18.2H25.2l24-56.1c1.1-2.5,1.1-5.4,0-7.9L25.2,96h28.5c12,0,22.8,7.1,27.6,18.2l3.7,8.7
	c1.1,2.5,3.1,4.5,5.7,5.4c2.5,1,5.4,0.8,7.8-0.3c29.8-14.2,66.2-30,110.4-38.6h0c12.9-2.5,26.1-4.3,39.2-5.4
	c5.5-0.5,9.6-5.3,9.1-10.8c-0.2-2.5-1.3-4.8-3.2-6.5c-2-1.9-4.8-2.8-7.6-2.6c-11.6,1-23.4,2.5-34.9,4.5l-10.7-15.3
	c2.3-4.4,10.9-12,29.1-19.5c21-8.7,46.7-13.8,68.8-13.8s47.8,5.2,68.8,13.8c18.1,7.5,26.7,15.1,29.1,19.5l-13.7,19.5
	c-16.3-3.8-34.6-6.5-54.7-8.2c-2.8-0.2-5.5,0.7-7.6,2.6c-1.9,1.7-3,4-3.2,6.6c-0.4,5.5,3.6,10.3,9.1,10.8
	c21.5,1.8,40.8,4.9,57.5,9.1c0,0,0,0,0.1,0c19.9,5.1,28.8,10.1,29.1,10.2c0.3,0.2,0.6,0.3,0.9,0.4c4.6,2.1,9.1,4.6,13.3,7.4
	c-21.2,22.6-33.1,52.5-33.1,83.7c0,5.5,4.5,10,10,10s10-4.5,10-10c0-26.8,10.5-52.5,29.1-71.6c30.4,26.9,48.9,65.2,48.9,77.3
	C492,204.3,485.1,214,463.9,224.1z"/>
<path fill="#2C2C2C" d="M287.3,62.8c-2.7,0-5.2,1-7.2,2.9c-1.9,1.9-2.9,4.3-3,7c-0.1,5.5,4.4,10.1,9.9,10.1h0.1c2.6,0,5.1-1,7-2.9
	c1.9-1.9,2.9-4.3,3-7C297.2,67.4,292.8,62.9,287.3,62.8z"/>
<path fill="#2C2C2C" d="M435,181c0,5.5,4.5,10,10,10c5.5,0,10-4.5,10-10s-4.5-10-10-10C439.5,171,435,175.5,435,181z"/>
</svg>
