<?xml version="1.0" encoding="utf-8"?>
<!-- Generator: Adobe Illustrator 22.1.0, SVG Export Plug-In . SVG Version: 6.00 Build 0)  -->
<svg version="1.1" id="Layer_1" xmlns="http://www.w3.org/2000/svg" xmlns:xlink="http://www.w3.org/1999/xlink" x="0px" y="0px"
	 viewBox="0 0 512 512" enable-background="new 0 0 512 512" xml:space="preserve">
<polygon fill="#F7C600" points="9.3,503.3 9.3,295.3 68.7,236 236,236 236,267.9 276,267.9 276,240 442.7,240 502,299.3 502,500 "/>
<path fill="#2C2C2C" d="M110,452H90c-5.5,0-10,4.5-10,10s4.5,10,10,10h20c5.5,0,10-4.5,10-10S115.5,452,110,452z"/>
<path fill="#2C2C2C" d="M50,392c-5.5,0-10,4.5-10,10v20c0,5.5,4.5,10,10,10s10-4.5,10-10v-20C60,396.5,55.5,392,50,392z"/>
<path fill="#2C2C2C" d="M50,452c-5.5,0-10,4.5-10,10s4.5,10,10,10s10-4.5,10-10S55.5,452,50,452z"/>
<path fill="#2C2C2C" d="M422,452h-20c-5.5,0-10,4.5-10,10s4.5,10,10,10h20c5.5,0,10-4.5,10-10S427.5,452,422,452z"/>
<path fill="#2C2C2C" d="M462,472c5.5,0,10-4.5,10-10s-4.5-10-10-10s-10,4.5-10,10S456.5,472,462,472z"/>
<path fill="#2C2C2C" d="M462,432c5.5,0,10-4.5,10-10v-20c0-5.5-4.5-10-10-10s-10,4.5-10,10v20C452,427.5,456.5,432,462,432z"/>
<path fill="#2C2C2C" d="M509.1,290.9l-3.1-3.1v-95.1c0-19.1-10.6-36.2-27.6-44.7L446,131.8V88.7c3-1.7,5-5,5-8.7V40
	c0-5.5-4.5-10-10-10h-70c-5.5,0-10,4.5-10,10v40c0,3.7,2,6.9,5,8.7v43.2L333.6,148c-17.1,8.5-27.6,25.7-27.6,44.7V228h-20V30
	c0-16.5-13.5-30-30-30s-30,13.5-30,30v198h-20v-35.3c0-19.1-10.6-36.2-27.6-44.7L146,131.8V88.7c3-1.7,5-5,5-8.7V40
	c0-5.5-4.5-10-10-10H71c-5.5,0-10,4.5-10,10v40c0,3.7,2,6.9,5,8.7v43.2L33.6,148C16.6,156.5,6,173.7,6,192.7v95.1l-3.1,3.1
	C1.1,292.8,0,295.3,0,298v204c0,5.5,4.5,10,10,10h492c5.5,0,10-4.5,10-10V298C512,295.3,510.9,292.8,509.1,290.9z M381,50h50v20h-50
	V50z M326,192.7c0-11.4,6.4-21.7,16.6-26.8l37.9-18.9c3.4-1.7,5.5-5.2,5.5-8.9V90h40v48c0,3.8,2.1,7.3,5.5,8.9l37.9,18.9
	c10.2,5.1,16.6,15.4,16.6,26.8v75.1l-20-20V198c0-5.5-4.5-10-10-10H356c-5.5,0-10,4.5-10,10v30h-20V192.7z M446,208v20.8
	c-1.3-0.5-2.6-0.8-4-0.8h-76v-20H446z M246,30c0-5.5,4.5-10,10-10s10,4.5,10,10v228h-20V30z M81,50h50v20H81V50z M26,192.7
	c0-11.4,6.4-21.7,16.6-26.8l37.9-18.9c3.4-1.7,5.5-5.2,5.5-8.9V90h40v48c0,3.8,2.1,7.3,5.5,8.9l37.9,18.9
	c10.2,5.1,16.6,15.4,16.6,26.8V228h-20v-30c0-5.5-4.5-10-10-10H56c-5.5,0-10,4.5-10,10v49.9l-20,20V192.7z M146,208v20H70
	c-1.4,0-2.8,0.3-4,0.8V208H146z M492,492H20V302.1L74.1,248H226v20c0,5.5,4.5,10,10,10h40c5.5,0,10-4.5,10-10v-20h151.9l54.1,54.1
	V492z"/>
<path fill="#2C2C2C" d="M150.1,361.4c7.1-3.1,10.7-9.7,10.7-19.8c0-14.9-8.4-22.4-25.2-22.4c0,0-25.8,0-25.8,0
	c-3.6,0-8.6,1.6-8.6,6.1v80.1c0,4.3,5.1,5.9,8.6,5.9h28c7.1,0,14.6-2.3,19.6-7.6c4.7-5.1,5.8-12.8,5.8-19.4c0,0,0-2.6,0-2.6
	C163,372.1,159.2,364.8,150.1,361.4z M120.7,336.4h13.2c4.7,0,7.2,4.6,7.2,8.8c0,4.1-2.5,8.7-7.2,8.7h-13.2V336.4z M143.4,382.6
	c0,7.7-3.4,11.6-10.1,11.6h-12.6V369h12.6c6.7,0,10.1,3.9,10.1,11.6V382.6z"/>
<path fill="#2C2C2C" d="M239.3,336.4c4.4,0,5.9-5.1,5.9-8.7c0-3.5-1.6-8.4-5.9-8.4h-44.9c-3.7,0-8.6,1.6-8.6,6.1v80
	c0,4.4,4.9,6.1,8.6,6.1h44.9c4.3,0,5.9-4.9,5.9-8.4c0-3.6-1.5-8.7-5.9-8.7h-33.8v-21.4h18.9c4,0,5.9-3.9,5.9-7.4
	c0-3.4-1.8-7.7-5.9-7.7h-18.9v-21.3H239.3z"/>
<path fill="#2C2C2C" d="M319.8,336.4c4.3,0,5.9-5.2,5.9-8.7c0-3.6-1.6-8.4-5.9-8.4c0,0-44.8,0-44.9,0c-3.5,0-8.6,1.6-8.6,6.1v80
	c0,4.4,4.9,6.1,8.6,6.1h44.9c2,0,3.4-1.1,4.4-2.5c1.1-1.7,1.6-3.9,1.6-5.9c0-3.4-1.6-8.7-5.9-8.7H286v-21.4h18.9
	c3.9,0,5.9-3.9,5.9-7.4c0-3.4-1.8-7.7-5.9-7.7H286v-21.3C286,336.4,319.6,336.4,319.8,336.4z"/>
<path fill="#2C2C2C" d="M398.4,412.1c2.9,0,5.7-1.1,8.4-3.3c2.2-1.8,5.5-6.2,3.3-9.2l-15.4-27.8c10.2-3.9,15.2-12.5,15.2-25.6
	c0-18-10.3-27-31-27c0,0-26,0-26.1,0c-3.3,0-6.1,2.6-6.1,5.9v80.1c0,4.8,6.1,6.1,9.8,6.1c3.7,0,9.8-1.3,9.8-6.1v-30.4h8.3l17.3,33.5
	C393.4,410.9,395.5,412.1,398.4,412.1z M387.4,357.1c-1.9,1.8-4.8,2.7-8.4,2.7h-12.5v-23.4H379c3.7,0,6.5,0.9,8.4,2.7
	c1.9,1.8,2.9,4.8,2.9,9S389.4,355.3,387.4,357.1z"/>
</svg>
