<?xml version="1.0" encoding="utf-8"?>
<!-- Generator: Adobe Illustrator 22.1.0, SVG Export Plug-In . SVG Version: 6.00 Build 0)  -->
<svg version="1.1" id="Layer_1" xmlns="http://www.w3.org/2000/svg" xmlns:xlink="http://www.w3.org/1999/xlink" x="0px" y="0px"
	 viewBox="0 0 462 512" enable-background="new 0 0 462 512" xml:space="preserve">
<polygon fill="#F7C600" points="71.7,251.3 71.7,454.7 95,502.7 331.7,502.7 351,445.3 351,251.3 "/>
<path fill="#2C2C2C" d="M412,222h-50v-40.3c12.8-11.4,20-27.4,20-44.7c0-31.3-24-57-54.6-59.8c-4.7-20.3-15.8-38.7-31.6-52.6
	C277.6,8.8,254.2,0,230,0c-24.3,0-47.4,8.7-65.6,24.5c-6.3-1.7-12.8-2.5-19.4-2.5c-28.2,0-53.5,15.5-66.4,40.1
	C77.4,62,76.2,62,75,62C33.6,62,0,95.6,0,137c0,36.9,26.6,67.7,62,73.9v17.5c-4.3,5.2-13.7,16.7-23.2,30.3
	C20.8,284.4,12,303.5,12,317c0,19.3,15.7,35,35,35c5.4,0,10.4-1.2,15-3.4V452c0,1.3,0.3,2.6,0.8,3.9c0,0,0,0,0,0l19.9,49.8
	c1.5,3.8,5.2,6.3,9.3,6.3h240c4.1,0,7.8-2.5,9.3-6.3l19.9-49.8c0,0,0,0,0,0c0.5-1.2,0.8-2.5,0.8-3.8c0,0,0-0.1,0-0.1v-12.6l50.1-15
	c14.5-4.4,27-13.1,36-25.3s13.8-26.6,13.8-41.8V272C462,244.4,439.6,222,412,222z M342,212v30H82v-30h20c8.6,6.5,19.1,10,30,10
	s21.4-3.5,30-10h88.8c7.8,6.5,17.5,10,27.8,10s20-3.5,27.8-10H342z M82,262h260v180H82V262z M362,282h40v72.1c0,4.4-2.9,8.3-7.1,9.6
	l-32.9,9.9V282z M20.4,143.5c-0.3-2.2-0.4-4.4-0.4-6.5c0-29.1,22.8-53.1,51.5-54.9C70.5,87,70,92,70,97c0,5.5,4.5,10,10,10
	s10-4.5,10-10c0-7.1,1.3-14,3.9-20.4c0,0,0-0.1,0-0.1c8.4-20.9,28.5-34.5,51-34.5c1.2,0,2.3,0,3.4,0.1C136.5,58.9,130,78.9,130,100
	c0,5.5,4.5,10,10,10s10-4.5,10-10c0-21.7,8.5-41.9,24-57.1C189,28.1,208.9,20,230,20c36.2,0,67.8,24.7,77.2,58.9
	c-4.9,1.2-9.6,3.1-14,5.5c-4.8,2.7-6.6,8.7-4,13.6c1.8,3.3,5.2,5.2,8.8,5.2c1.6,0,3.3-0.4,4.8-1.2c5.1-2.8,10.9-4.5,16.8-4.8h0.1
	c0,0,0.1,0,0.1,0c0.8,0,1.5-0.1,2.3-0.1c22.1,0,40,17.9,40,40c0,12.7-5.8,24.4-16,32c-2.5,1.9-4,4.9-4,8v15h-22.2
	c1.4-4.3,2.2-8.8,2.2-13.5c0-5.5-4.5-10-10-10s-10,4.5-10,10c0,7.1-3.3,13.9-8.8,18.4c-4.1,3.3-9.4,5.1-14.7,5.1
	c-7.2,0-14.2-3.4-18.6-9.1c-3.2-4.1-4.9-9.2-4.9-14.4c0-5.5-4.5-10-10-10s-10,4.5-10,10c0,4.7,0.8,9.2,2.1,13.5h-59.3
	c2.7-6.2,4.2-13,4.2-20c0-5.5-4.5-10-10-10s-10,4.5-10,10c0,16.1-13.9,30-30,30c-4.9,0-9.8-1.2-14.1-3.5c2.5-1.7,4.9-3.6,7.2-5.7
	c4.1-3.7,4.5-10,0.8-14.1c-3.7-4.1-10-4.5-14.1-0.8C79.1,207.2,25.5,186.8,20.4,143.5z M47,332c-8.3,0-15-6.7-15-15
	c0-12.1,14.8-36,30-56.4V317C62,325.3,55.3,332,47,332z M325.2,492H98.8l-12-30h250.5L325.2,492z M442,357.4
	c0,22.3-14.3,41.5-35.6,47.9L362,418.6v-24.1l38.6-11.6c12.8-3.8,21.4-15.4,21.4-28.7V272c0-5.5-4.5-10-10-10h-50v-20h50
	c16.5,0,30,13.5,30,30V357.4z"/>
<path fill="#2C2C2C" d="M122,282c-5.5,0-10,4.5-10,10s4.5,10,10,10s10-4.5,10-10S127.5,282,122,282z"/>
<path fill="#2C2C2C" d="M122,322c-5.5,0-10,4.5-10,10v80c0,5.5,4.5,10,10,10s10-4.5,10-10v-80C132,326.5,127.5,322,122,322z"/>
<path fill="#2C2C2C" d="M182,282c-5.5,0-10,4.5-10,10v120c0,5.5,4.5,10,10,10s10-4.5,10-10V292C192,286.5,187.5,282,182,282z"/>
<path fill="#2C2C2C" d="M242,282c-5.5,0-10,4.5-10,10v120c0,5.5,4.5,10,10,10s10-4.5,10-10V292C252,286.5,247.5,282,242,282z"/>
<path fill="#2C2C2C" d="M302,282c-5.5,0-10,4.5-10,10s4.5,10,10,10s10-4.5,10-10S307.5,282,302,282z"/>
<path fill="#2C2C2C" d="M302,322c-5.5,0-10,4.5-10,10v80c0,5.5,4.5,10,10,10s10-4.5,10-10v-80C312,326.5,307.5,322,302,322z"/>
<path fill="#2C2C2C" d="M224.2,136c-2.2-1.9-5.1-2.7-7.9-2.3c-5.5,0.8-9.3,5.9-8.5,11.3c0.7,4.9,4.9,8.6,9.9,8.6
	c0.5,0,0.9,0,1.4-0.1c2.6-0.4,5-1.8,6.6-3.9c1.6-2.1,2.3-4.8,1.9-7.4C227.3,139.8,226.1,137.6,224.2,136z"/>
<path fill="#2C2C2C" d="M212,74c16.5,0,30,13.5,30,30c0,4.4-0.9,8.5-2.7,12.5c-2.3,5,0,11,4.9,13.3c4.9,2.3,11,0,13.3-4.9
	c9-19.6,3.3-41.6-10.5-55.7c-8.9-9.1-21.1-15-35-15c-5.5,0-10,4.5-10,10S206.5,74,212,74z"/>
</svg>
