<?xml version="1.0" encoding="utf-8"?>
<!-- Generator: Adobe Illustrator 22.1.0, SVG Export Plug-In . SVG Version: 6.00 Build 0)  -->
<svg version="1.1" id="Layer_1" xmlns="http://www.w3.org/2000/svg" xmlns:xlink="http://www.w3.org/1999/xlink" x="0px" y="0px"
	 viewBox="0 0 512 512" enable-background="new 0 0 512 512" xml:space="preserve">
<circle fill="#F7C600" cx="256.2" cy="251.5" r="159.2"/>
<path fill="#2C2C2C" d="M452,412h-19.4l-13-30.4c29-36,46.4-81.8,46.4-131.6c0-105.6-78.4-193.2-180-207.8V10c0-5.5-4.5-10-10-10
	h-40c-5.5,0-10,4.5-10,10v32.2C124.4,56.8,46,144.4,46,250c0,49.8,17.4,95.5,46.4,131.6l-13,30.4H60c-27.6,0-50,22.4-50,50
	s22.4,50,50,50h81.5c15.1,0,28.8-8.4,35.6-21.8l21.8-38.1c18.2,5.1,37.3,7.9,57.1,7.9s39-2.8,57.1-7.9l21.8,38.1
	c6.9,13.5,20.5,21.8,35.6,21.8H452c27.6,0,50-22.4,50-50S479.6,412,452,412z M246,20h20v20.2c-3.3-0.2-6.6-0.2-10-0.2
	s-6.7,0.1-10,0.2V20z M159.6,480.4c-0.1,0.2-0.2,0.3-0.3,0.5c-3.4,6.8-10.3,11.1-17.9,11.1H60c-16.5,0-30-13.5-30-30s13.5-30,30-30
	h26c4,0,7.6-2.4,9.2-6.1l12-27.9c20.4,20.5,45,36.9,72.4,47.6L159.6,480.4z M66,250c0-104.8,85.2-190,190-190s190,85.2,190,190
	s-85.2,190-190,190S66,354.8,66,250z M452,492h-81.5c-7.6,0-14.5-4.2-17.9-11.1c-0.1-0.2-0.2-0.3-0.3-0.5l-19.9-34.9
	c27.4-10.7,52-27.1,72.4-47.6l12,27.9c1.6,3.7,5.2,6.1,9.2,6.1h26c16.5,0,30,13.5,30,30S468.5,492,452,492z"/>
<path fill="#2C2C2C" d="M89.5,462c0,5.5,4.5,10,10,10h40c5.5,0,10-4.5,10-10s-4.5-10-10-10h-40C94,452,89.5,456.5,89.5,462z"/>
<path fill="#2C2C2C" d="M59.5,452c-5.5,0-10,4.5-10,10s4.5,10,10,10s10-4.5,10-10S65,452,59.5,452z"/>
<path fill="#2C2C2C" d="M452.5,452c-5.5,0-10,4.5-10,10s4.5,10,10,10s10-4.5,10-10S458,452,452.5,452z"/>
<path fill="#2C2C2C" d="M412.5,452h-40c-5.5,0-10,4.5-10,10s4.5,10,10,10h40c5.5,0,10-4.5,10-10S418,452,412.5,452z"/>
<path fill="#2C2C2C" d="M256,80c-93.7,0-170,76.3-170,170s76.3,170,170,170s170-76.3,170-170S349.7,80,256,80z M131,332.8
	c-15.8-23.7-25-52.2-25-82.8s9.2-59.1,25-82.8V332.8z M271,295c0,8.3-6.7,15-15,15s-15-6.7-15-15s6.7-15,15-15S271,286.7,271,295z
	 M181,379.9c-10.9-6.3-21-14-30-22.9V143c9-8.8,19.1-16.5,30-22.9V379.9z M246,399.7c-15.8-1-30.9-4.5-45-10.1V110.4
	c14.1-5.6,29.2-9.1,45-10.1V220h-10c-5.5,0-10,4.5-10,10s4.5,10,10,10h10v21.5c-14.4,4.3-25,17.7-25,33.5c0,6.6,1.8,12.7,5,18v47
	c0,5.5,4.5,10,10,10h10V399.7z M246,350v-21.5c3.2,0.9,6.5,1.5,10,1.5s6.8-0.5,10-1.5V350H246z M311,389.6
	c-14.1,5.6-29.2,9.1-45,10.1V370h10c5.5,0,10-4.5,10-10v-47c3.2-5.3,5-11.4,5-18c0-15.8-10.6-29.2-25-33.5V240h10
	c5.5,0,10-4.5,10-10s-4.5-10-10-10h-10V100.3c15.8,1,30.9,4.5,45,10.1V389.6z M361,357c-9,8.8-19.1,16.5-30,22.9V120.1
	c10.9,6.3,21,14,30,22.9V357z M381,167.2c15.8,23.7,25,52.2,25,82.8s-9.2,59.1-25,82.8V167.2z"/>
</svg>
