<?xml version="1.0" encoding="utf-8"?>
<!-- Generator: Adobe Illustrator 22.1.0, SVG Export Plug-In . SVG Version: 6.00 Build 0)  -->
<svg version="1.1" id="Layer_1" xmlns="http://www.w3.org/2000/svg" xmlns:xlink="http://www.w3.org/1999/xlink" x="0px" y="0px"
	 viewBox="0 0 512 422" enable-background="new 0 0 512 422" xml:space="preserve">
<path fill="#F7C600" d="M10.7,211c0,0,10,199.3,154.6,202c144.7,2.7,188.7,0,188.7,0s124,11.3,146-202L10.7,211z"/>
<path fill="#2C2C2C" d="M509.9,201.8c-1.9-2.4-4.8-3.8-7.9-3.8h-49.4c4.7-15.9,1.8-33.3-8.5-46.9l-18.4-24.6
	c-13.8-18.4-33-32.2-54.6-39.7c1.9-5.3,2.9-11,2.9-16.8c0-21.5-12.8-40.8-32.6-49.1L313,8.9C285.1-2.9,253-3,225,8.6L196.7,20
	c-0.7,0.1-1.4,0.3-2.1,0.6c-10.1,4.3-18.4,11.4-24.1,20.2c-5.7-1.8-11.7-2.9-18-2.9C120.2,37.9,94,64.2,94,96.5
	c0,8.5,1.8,16.5,5.1,23.8C81.3,129.3,70,147.5,70,167.7c0,11.1,3.7,21.7,10.2,30.2H10c-3,0-5.9,1.4-7.8,3.7c-1.9,2.4-2.6,5.4-2,8.4
	l17.5,80c0,0.1,8.2,30,8.2,30c0.1,0.2,0.1,0.4,0.2,0.6c10.2,29.6,29.5,55,55.8,73.5C108,412.4,138.4,422,170,422h172.7
	c33.5,0,66.5-11.4,92.9-32.2s45.2-50.2,53-82.8l4-16.7l19.2-80C512.4,207.3,511.7,204.2,509.9,201.8z M409.7,138.4l18.4,24.6
	c7.6,10.2,8.7,23.7,3.1,34.9h-52c-3.6-10.3-10.5-29.7-18.5-49.7c-9-22.5-16.2-37.7-22-48.1l8.3,1.2c0,0,0.1,0,0.1,0
	C371.8,104.9,394.7,118.4,409.7,138.4z M176,158.4c-19.2-14.8-33-24.3-43.3-30.3l7.8-3.1c0,0,0.1,0,0.1,0
	c23.1-9.6,49.6-9.5,72.7,0.2l28.4,11.9c12.4,5.2,20.4,17.3,20.4,30.7c0,10.2-4.9,19.3-13.4,25c-8.1,5.4-17.8,6.5-26.8,3.2
	C216.6,191.5,197.2,174.8,176,158.4z M193.3,198h-27.9c8.6-5.3,16-9.8,16-9.8C185.6,191.6,189.7,195,193.3,198z M281.7,112.9
	c6-10.3,17-16.5,28.7-16.5c0.5,0,1,0,1.5,0.1c3.3,3.4,12.6,15.7,30.1,59.2c0.2,0.4,0.3,0.8,0.5,1.2l-39.6,0.9
	c-9.8-1.5-17.9-7.5-22.3-16.5C276.2,132,276.6,121.7,281.7,112.9z M264.5,102.7c-3.7,6.3-5.9,13.3-6.6,20.3
	c-2.7-1.7-5.5-3.2-8.5-4.5l-13.2-5.6l37-22.8c0.3,0.2,0.5,0.4,0.8,0.7C270.3,94.3,267.1,98.3,264.5,102.7z M281.9,170.9
	c5.8,3.5,12.3,5.8,19.2,6.7c0.4,0.1,0.9,0.1,1.3,0.1c0.1,0,0.1,0,0.2,0l47.6-1c3,8.1,5.7,15.4,7.8,21.3h-86.2
	C277.7,190.2,281.3,180.8,281.9,170.9z M232.5,27.2c0,0,0.1,0,0.1,0c23.1-9.6,49.6-9.5,72.7,0.2l28.4,11.9C346,44.5,354,56.5,354,70
	c0,4.2-0.8,8.3-2.4,11.9c-0.6-0.1-1.1-0.2-1.7-0.3l-32.7-4.9c-0.5-0.1-0.9-0.1-1.4-0.1c-8.3-0.8-16.4,0.3-23.9,3.1
	c-7.1-5.9-15.4-12.5-23.9-19.1c-19.2-14.8-33-24.3-43.3-30.3L232.5,27.2z M199.4,40.4c4.2,1,18.2,6.5,56.2,35.9
	c0.3,0.2,0.5,0.4,0.8,0.6L223,97.6c-9.2,3.6-19.3,2.6-27.6-2.9c-8.5-5.7-13.4-14.8-13.4-25C182,57.4,188.8,46.2,199.4,40.4z
	 M152.5,57.9c3.6,0,7.2,0.5,10.5,1.5c-0.7,3.3-1,6.8-1,10.3c0,10.2,3.1,20,8.7,28.2c-12.9,0.7-25.7,3.5-37.7,8.5
	c0,0-7.6,3.1-15.4,6.2c-2.3-4.9-3.6-10.4-3.6-16.1C114,75.2,131.3,57.9,152.5,57.9z M107.8,138.3c4.6,1.2,18.8,7.2,55.9,35.9
	c0.3,0.3,0.7,0.5,1,0.8L131,195.6c-9.2,3.6-19.3,2.6-27.6-2.9c-8.5-5.7-13.4-14.8-13.4-25C90,155.3,96.9,144,107.8,138.3z
	 M469.1,302.3C455,361,403,402,342.6,402H170c-55.7,0-107-36-124.9-87.5L40.6,298h429.5L469.1,302.3z M484.5,238H432
	c-5.5,0-10,4.5-10,10c0,5.5,4.5,10,10,10h47.7l-4.8,20H35.5l-4.4-20H80c5.5,0,10-4.5,10-10c0-5.5-4.5-10-10-10H26.8l-4.4-20h466.9
	L484.5,238z"/>
<path fill="#2C2C2C" d="M120,258c5.5,0,10-4.5,10-10c0-5.5-4.5-10-10-10s-10,4.5-10,10C110,253.5,114.5,258,120,258z"/>
<path fill="#2C2C2C" d="M256,258c5.5,0,10-4.5,10-10c0-5.5-4.5-10-10-10s-10,4.5-10,10C246,253.5,250.5,258,256,258z"/>
<path fill="#2C2C2C" d="M392,258c5.5,0,10-4.5,10-10c0-5.5-4.5-10-10-10s-10,4.5-10,10C382,253.5,386.5,258,392,258z"/>
<path fill="#2C2C2C" d="M296,258h56c5.5,0,10-4.5,10-10c0-5.5-4.5-10-10-10h-56c-5.5,0-10,4.5-10,10C286,253.5,290.5,258,296,258z"
	/>
<path fill="#2C2C2C" d="M160,258h56c5.5,0,10-4.5,10-10c0-5.5-4.5-10-10-10h-56c-5.5,0-10,4.5-10,10C150,253.5,154.5,258,160,258z"
	/>
</svg>
