<?xml version="1.0" encoding="utf-8"?>
<!-- Generator: Adobe Illustrator 22.1.0, SVG Export Plug-In . SVG Version: 6.00 Build 0)  -->
<svg version="1.1" id="Layer_1" xmlns="http://www.w3.org/2000/svg" xmlns:xlink="http://www.w3.org/1999/xlink" x="0px" y="0px"
	 viewBox="0 0 511 432.7" enable-background="new 0 0 511 432.7" xml:space="preserve">
<path fill="#F7C600" d="M499.3,99.3c0,0,28,373.4-376,309.4c-14.3-9.7-94-100.7,31.3-132c21.3-0.7,190,40.7,200-168.8
	C354.7,108,428.7,185.9,499.3,99.3z"/>
<path fill="#2C2C2C" d="M462.1,57.4c0,5.5-4.5,10-10,10c-5.5,0-10-4.5-10-10s4.5-10,10-10C457.6,47.4,462.1,51.9,462.1,57.4z"/>
<path fill="#2C2C2C" d="M402.2,57.4c0,5.5-4.5,10-10,10c-5.5,0-10-4.5-10-10s4.5-10,10-10C397.7,47.4,402.2,51.9,402.2,57.4z"/>
<path fill="#2C2C2C" d="M297.3,260.8c2.2,0,4.3-0.7,6-2c0,0,0,0,0,0c4.4-3.3,5.2-9.6,1.9-14c-1.9-2.5-4.8-3.9-8-3.9
	c-2.2,0-4.3,0.7-6,2c-2.1,1.6-3.5,4-3.9,6.6c-0.4,2.6,0.3,5.3,1.9,7.4C291.2,259.4,294.1,260.8,297.3,260.8z"/>
<path fill="#2C2C2C" d="M507,75.1c0-0.1,0-0.2,0-0.3C507,33.6,469,0,422.2,0c-46.8,0-84.8,33.6-84.8,74.9c0,7.7,1.3,15.1,3.8,22.1
	c1,8.1,1.5,16.6,1.5,24.9c0,32.1-8.8,67.5-26.6,94.5c-1.5,2.2-2,4.9-1.4,7.5c0.5,2.6,2.1,4.8,4.3,6.3c1.6,1.1,3.5,1.7,5.5,1.7
	c3.4,0,6.5-1.7,8.3-4.5c8.1-12.3,14.5-26.3,19.7-42.8c7.6,6.2,19.4,14.2,34.8,19.6c10,3.6,22.3,6.3,36.5,6.3
	c17.3,0,37.3-4.1,59.3-15.7c-16.9,72.2-59.5,133.3-120.8,173.1c-7.2,4.7-14.7,9-22.2,13c-40.3,21.2-84,31.9-129.8,31.9
	c-22.5,0-45.2-2.7-67.6-8c-31.6-7.5-53.7-41.2-47.6-73.3c5.3-27.3,28.1-46.4,55.6-46.5c8.6,0,16.9,2.5,25.3,3.9
	c9.4,1.6,19,2.4,28.5,2.4c21.3,0,42.1-4,61.7-11.8c5.1-2,7.6-7.9,5.6-13c-1.5-3.8-5.2-6.3-9.3-6.3c-1.3,0-2.5,0.2-3.7,0.7
	c-17.3,6.9-35.5,10.4-54.3,10.4c-18.2,0-35.7-6.3-53.8-6.3h-0.2c-8.9,0-17.6,1.5-26,4.6c-5.2,1.9-10.1,4.3-14.7,7.2l-37.2-45.2
	c-2.7-3.2-7.1-4.5-11.1-3.1c-4,1.4-6.6,5.2-6.6,9.4l-0.1,28.8l-41.8-6c-4-0.6-8,1.4-10.1,4.9c-2,3.5-1.7,8,0.8,11.2l26.1,33.2
	L5,324.4c-3.6,2.1-5.5,6.3-4.8,10.4c0.8,4.1,4,7.4,8.2,8l66.4,11c0.8,5.6,2.1,11.1,3.9,16.4c9.2,26.4,31.9,47.3,59.3,53.9
	c23.9,5.6,48.2,8.5,72.2,8.5l0-0.1v0.1c24.2,0,48.3-2.9,71.6-8.6c23.4-5.7,46.1-14.3,67.5-25.6c8.1-4.2,16.1-8.9,23.8-13.9
	c17.2-11.1,33.2-24,47.7-38.3c14.3-14.2,27.3-29.8,38.5-46.6c11.2-16.8,20.8-34.9,28.4-53.7c7.7-19,13.6-39.1,17.6-59.6
	c3.8-20,5.8-40.4,5.8-60.6C511,108.8,509.7,91.9,507,75.1z M85.1,302.2c-4.7,7.8-7.9,16.4-9.6,25.5c-0.4,2-0.7,3.9-0.9,5.9
	l-35.6-5.9l10.9-6.3c2.5-1.5,4.2-3.9,4.8-6.8c0.5-2.8-0.2-5.8-2-8l-17.8-22.6l28.5,4.1c2.9,0.4,5.8-0.4,7.9-2.3
	c2.2-1.9,3.5-4.6,3.5-7.5l0.1-12.6L95,289C91.2,293,87.9,297.4,85.1,302.2z M422.2,20c35.8,0,64.9,24.6,64.9,54.9
	s-29.1,54.9-64.9,54.9s-64.9-24.6-64.9-54.9S386.4,20,422.2,20z M488,168.5c-73.7,49.5-123.7,0.7-129.9-5.8c0.6-2.8,1.2-5.6,1.8-8.6
	c1.5-7.9,2.4-16.7,2.7-26.2c15.3,13.4,36.4,21.7,59.7,21.7c28.3,0,53.3-12.3,68.8-31.1c0.1,2.4,0.1,4.7,0.1,7.1
	C491,140,490,154.3,488,168.5z"/>
<path fill="#2C2C2C" d="M430.2,99.3c0,5.5-4.5,10-10,10c-5.5,0-10-4.5-10-10s4.5-10,10-10C425.7,89.3,430.2,93.8,430.2,99.3z"/>
</svg>
