<?xml version="1.0" encoding="utf-8"?>
<!-- Generator: Adobe Illustrator 22.1.0, SVG Export Plug-In . SVG Version: 6.00 Build 0)  -->
<svg version="1.1" id="Layer_1" xmlns="http://www.w3.org/2000/svg" xmlns:xlink="http://www.w3.org/1999/xlink" x="0px" y="0px"
	 viewBox="0 0 301.4 511" enable-background="new 0 0 301.4 511" xml:space="preserve">
<path fill="#F7C600" d="M281.5,132c23.9,133.3-41.1,318-41.1,318H61.5c0,0-18.2-94.7-31.3-122.7c-61-61-10.3-195.3-10.3-195.3H281.5
	z"/>
<path fill="#2C2C2C" d="M296.6,174.3l-6.5-44c0-0.1-10-50.4-10-50.4c-0.1-0.7-0.3-1.3-0.6-1.9c1.8-5.8,2.8-12,2.8-18.3
	c-0.1-15.5-6.1-30.2-16.9-41.4C254.4,7,239.9,0.5,224.4,0c-19.8-0.6-38.4,8.6-49.9,24.1c-9.9-9-22.9-14.1-36.8-14.1
	c-16.2,0-31.5,7.1-42,19.6c-3,3.5-7.8,4.8-11.9,3.3c-5.8-2.2-12-3.2-18.2-2.8c-22.6,1.2-40.8,19.1-42.4,41.7
	c-0.1,1.4-0.1,2.8-0.1,4.1c-0.9,1.2-1.5,2.5-1.8,4l-10,49.9c0,0.1-6.6,44.5-6.6,44.5c-9,47.2-5.3,96.1,10.9,141.3l10.9,30.7
	c0.1,0.3,0.2,0.5,0.3,0.8c20.3,44.5,23.9,100.3,24.1,104.3v29.7c0,16.5,13.4,29.9,29.9,29.9h139.5c16.5,0,29.9-13.4,29.9-29.9v-29.6
	c0.4-4.5,4.9-56.6,24.3-104.9c0.1-0.1,0.1-0.2,0.1-0.4l10.9-30.7C301.9,270.3,305.6,221.5,296.6,174.3z M39.3,91.8h222.8l6,29.9
	H33.3L39.3,91.8z M66.7,49.9c0.4,0,0.9,0,1.3,0c3,0,6,0.5,8.8,1.6c12.1,4.6,25.8,0.9,34.2-9.1c6.6-7.9,16.4-12.5,26.7-12.5
	c12.3,0,23.4,6.3,29.8,16.8c2,3.2,5.6,5.1,9.4,4.8c3.8-0.3,7-2.8,8.4-6.3c6.2-15.7,21.6-25.8,38.4-25.3
	c21.2,0.7,38.4,18.5,38.5,39.8c0,4.2-0.6,8.3-1.8,12.1H43.3C44.7,60.1,54.8,50.6,66.7,49.9z M230.4,481.1c0,5.5-4.5,10-10,10H81
	c-5.5,0-10-4.5-10-10v-20h159.4V481.1z M267,308.9l-10.9,30.5c-16.5,41-22.7,83.4-24.8,101.8H70.3c-1.8-19.1-7.6-63.6-25-102
	l-10.8-30.3c-15-42-18.4-87.3-10-131c0-0.1,0.1-0.3,0.1-0.4l5.3-35.7h241.9l5.3,35.7c0,0.1,0,0.3,0.1,0.4
	C285.4,221.6,281.9,266.9,267,308.9z"/>
<path fill="#2C2C2C" d="M246.8,231.6c-2.7-0.1-5.3,0.9-7.2,2.8c-1.9,1.8-2.9,4.3-3,6.9c-0.6,23.7-4.6,47.2-11.8,69.8
	c-1.7,5.2,1.2,10.9,6.4,12.5c1,0.3,2,0.5,3,0.5c4.3,0,8.2-2.8,9.5-6.9c7.8-24.4,12.1-49.8,12.7-75.4
	C256.6,236.3,252.3,231.7,246.8,231.6z"/>
<path fill="#2C2C2C" d="M224.3,342.4c-1.1-0.4-2.2-0.6-3.3-0.6c-4.2,0-8,2.7-9.4,6.6c-1.8,5.2,0.9,10.9,6,12.8
	c1.1,0.4,2.2,0.6,3.4,0.6c4.2,0,8-2.7,9.4-6.6C232.2,349.9,229.5,344.2,224.3,342.4z"/>
</svg>
