<?xml version="1.0" encoding="utf-8"?>
<!-- Generator: Adobe Illustrator 22.1.0, SVG Export Plug-In . SVG Version: 6.00 Build 0)  -->
<svg version="1.1" id="Слой_1" xmlns="http://www.w3.org/2000/svg" xmlns:xlink="http://www.w3.org/1999/xlink" x="0px" y="0px"
	 viewBox="0 0 1478.3 1250.2" enable-background="new 0 0 1478.3 1250.2" xml:space="preserve">
<g id="Слой_3">
	<path fill-rule="evenodd" clip-rule="evenodd" fill="#FFFFFF" d="M790.4,773c-66.1-16.2-209.6-56.8-209.6-56.8s3.1,49.7-18.2,109.4
		c-24.3,68.1-56.6,119.9-59.5,124.4c-0.1,0.2-0.2,0.4-0.2,0.4l0.2-0.4l118.5-185.8c0,0,33.9,5.9,167.7,31.2
		c102.6,19.4,181.2,8.7,181.2,8.7S905.1,801.1,790.4,773z M497.4,1118.8c-5.5-23.8-29.3-38.7-53.1-33.2
		c-23.8,5.5-38.7,29.3-33.2,53.1c5.5,23.8,29.3,38.7,53.1,33.1C488.1,1166.4,502.9,1142.7,497.4,1118.8z M478.1,1031.5
		c-1.1-4.8-5.9-7.7-10.6-6.6c-4.8,1.1-7.7,5.9-6.6,10.6c1.1,4.8,5.9,7.7,10.6,6.6C476.3,1041.1,479.2,1036.3,478.1,1031.5z
		 M509.7,1057.9c2.9,12.4,15.2,20.1,27.6,17.2c12.4-2.9,20.1-15.2,17.2-27.6c-2.9-12.4-15.2-20.1-27.6-17.2
		C514.5,1033.1,506.8,1045.5,509.7,1057.9z M534.9,1123.8c2.2,9.5,11.7,15.5,21.2,13.3c9.5-2.2,15.5-11.7,13.3-21.2
		c-2.2-9.5-11.7-15.5-21.2-13.3C538.6,1104.8,532.7,1114.3,534.9,1123.8z M1447.7,777.5c-48.3,125.2-156.3,243.3-156.3,243.3
		l7.3-94.3c0,0-96.9,231.3-500.6,310.1c-276.8,54-510.2-69.2-510.2-69.2s118.2-101.9,182.5-267.5c46.9-120.7,47.5-254.4,47.5-254.4
		s28.4-9.9,124.2,18.5c102.9,30.6,339.9,141.8,560.2,81.3c195.6-53.7,273.2-201.2,273.2-201.2S1491.2,664.9,1447.7,777.5z"/>
	<path fill-rule="evenodd" clip-rule="evenodd" fill="#FFFFFF" d="M1228.7,326.8c-4.9-19.4-24.6-31.2-44.1-26.3
		c-19.4,4.9-31.2,24.6-26.3,44.1c4.9,19.4,24.6,31.2,44.1,26.3C1221.9,366,1233.6,346.3,1228.7,326.8z M796.5,240.7
		c0,0-88.1,34.5-166.4,79.6C556.5,362.7,492.3,416,492.3,416s81.8,5.2,159.1,24.6c75.6,19,146.7,52.3,146.7,52.3
		s-47.8-53.1-134.2-91.7c-35.5-15.8-70.1-17.4-70.1-17.4L796.5,240.7z M1342.7,471.7c-53,7.8-108.6,2.7-108.6,2.7
		s48.9,27.5,95.8,40.7c35.6,10.1,82.9,6.8,82.9,6.8s-64,83.6-145.2,125.2c-83.7,42.9-195.3,43.7-195.3,43.7s-48.8-95.4-59.1-205.3
		c-10.6-113.9,45.7-179.5,45.7-179.5s-79.2,72.4-91.4,180.2c-12.7,112,27.5,196.7,27.5,196.7s-100.1-5.7-182.5-30.6
		c-56.6-17.1-261-103.8-397.3-98.9c-112.7,4.1-209,43.5-209,43.5s75.1-151.3,60.3-155.7c-14.8-4.5-93.1,57.4-153,146.2
		c-61.7,91.5-90.2,214.4-90.2,214.4s-64.3-190.5,124.2-420.1c169.9-207,428-242.9,435.7-255.8c7.7-12.9-15.4-42.2-46.1-66.9
		c-38.3-30.9-93.7-45.8-93.7-45.8s159.4-24.6,308.7-6.6C937.5,28.9,1030,126,1030,126s181.5,14,287.1,101.5
		c99.5,82.5,130.9,215.3,130.9,215.3S1396.6,463.8,1342.7,471.7z"/>
	<path fill-rule="evenodd" clip-rule="evenodd" fill="#FFFFFF" d="M349.9,661c-12.1,5-20.8,18.9-20.8,18.9s-21.6-13.2-55.9,6.3
		c-20.4,11.6-18.9,38.5-18.9,38.5l5.6,26.9c0,0-4.1-24.3,27.6-48.7c24.5-18.8,50.4-3.9,50.4-3.9s1.9-10.4,12.1-22.4
		C360.2,664.5,379,658,379,658S362.1,656,349.9,661z M118.8,890.9c-6.6-23.6,1.6-53.2,1.6-53.2s-17.3,19.8-21.5,39.7
		c-4.2,19.8,6,43,6,43S69.3,936.4,64.4,997c-2.9,36,41.7,78.9,41.7,78.9s-10,20.9-4.1,41c6.5,22.4,30.6,43.5,30.6,43.5
		s-16.3-27.2-14-49.5c2.1-20.5,17.6-40.1,17.6-40.1s-34.6-15.8-38.1-77.4c-2.7-47.5,38.8-67.7,38.8-67.7S125.3,914.3,118.8,890.9z
		 M406.4,890.3c-62.7,158.5-181.2,249.3-184.7,262.9c-2.2,8.8-24.8,48.8-78.1,40.5c-44.2-6.8-55.6-43.7-62.7-55.2
		c-8.5-13.8-36.2-23-56.4-51.1c-29.4-41-29.9-90.4-13.8-122c14.5-28.3,37.9-41.6,44.2-54.9c6.3-13.3-3.1-18.6-2.1-43
		c1.3-32.5,19.5-55.4,40.6-63.2c32.7-12,34.6-23.1,40.2-48.6c7.4-33.4,21.3-37.4,47.2-41.1c33.6-4.7,42.1-8.1,46.6-35.5
		c3.3-19.9,21.4-36.7,39.7-34c35.7,5.3,25.3,2.7,50.4-16.8c44.3-34.4,99.7,13.6,87.6,10.3c14.2,3.9,10.1-1.9,24.6-3.5
		c11.7-1.4,19.7-0.8,25.5,9C461.1,653.9,464.1,744.3,406.4,890.3z"/>
</g>
</svg>
